<svg id="wave" style="transform:rotate(0deg); transition: 0.3s" viewBox="0 0 1440 270" version="1.1" xmlns="http://www.w3.org/2000/svg"><defs><linearGradient id="sw-gradient-0" x1="0" x2="0" y1="1" y2="0"><stop stop-color="rgba(243, 106, 62, 1)" offset="0%"></stop><stop stop-color="rgba(255, 179, 11, 1)" offset="100%"></stop></linearGradient></defs><path style="transform:translate(0, 0px); opacity:1" fill="url(#sw-gradient-0)" d="M0,108L48,108C96,108,192,108,288,121.5C384,135,480,162,576,148.5C672,135,768,81,864,54C960,27,1056,27,1152,45C1248,63,1344,99,1440,108C1536,117,1632,99,1728,76.5C1824,54,1920,27,2016,49.5C2112,72,2208,144,2304,184.5C2400,225,2496,234,2592,225C2688,216,2784,189,2880,175.5C2976,162,3072,162,3168,171C3264,180,3360,198,3456,184.5C3552,171,3648,126,3744,94.5C3840,63,3936,45,4032,63C4128,81,4224,135,4320,139.5C4416,144,4512,99,4608,90C4704,81,4800,108,4896,126C4992,144,5088,153,5184,157.5C5280,162,5376,162,5472,171C5568,180,5664,198,5760,180C5856,162,5952,108,6048,81C6144,54,6240,54,6336,67.5C6432,81,6528,108,6624,130.5C6720,153,6816,171,6864,180L6912,189L6912,270L6864,270C6816,270,6720,270,6624,270C6528,270,6432,270,6336,270C6240,270,6144,270,6048,270C5952,270,5856,270,5760,270C5664,270,5568,270,5472,270C5376,270,5280,270,5184,270C5088,270,4992,270,4896,270C4800,270,4704,270,4608,270C4512,270,4416,270,4320,270C4224,270,4128,270,4032,270C3936,270,3840,270,3744,270C3648,270,3552,270,3456,270C3360,270,3264,270,3168,270C3072,270,2976,270,2880,270C2784,270,2688,270,2592,270C2496,270,2400,270,2304,270C2208,270,2112,270,2016,270C1920,270,1824,270,1728,270C1632,270,1536,270,1440,270C1344,270,1248,270,1152,270C1056,270,960,270,864,270C768,270,672,270,576,270C480,270,384,270,288,270C192,270,96,270,48,270L0,270Z"></path></svg>
