<svg width="1920" height="1080" viewBox="0 0 1920 1080" xmlns="http://www.w3.org/2000/svg"><rect width="1920" height="1080" fill="#3d1053"/><path d="M1920,1080C1601.1666666666667,1117,276,1095.5,0,1080C-276,1064.5,174.5,1022.8333333333334,264,987C353.5,951.1666666666666,445.3333333333333,850.3333333333334,537,865C628.6666666666666,879.6666666666666,722.8333333333334,1039.8333333333333,814,1075C905.1666666666666,1110.1666666666667,992.1666666666666,1109.5,1084,1076C1175.8333333333333,1042.5,1272.3333333333333,892.3333333333334,1365,874C1457.6666666666667,855.6666666666666,1548.6666666666667,968.6666666666666,1640,966C1731.3333333333333,963.3333333333334,1866.3333333333333,839,1913,858C1959.6666666666667,877,2238.8333333333335,1043,1920,1080C1601.1666666666667,1117,276,1095.5,0,1080" fill="#df6688"/></svg>
