<?xml version="1.0" encoding="UTF-8"?>
<svg xmlns="http://www.w3.org/2000/svg" xmlns:xlink="http://www.w3.org/1999/xlink" width="50" zoomAndPan="magnify" viewBox="0 0 150 74.249996" height="50" preserveAspectRatio="xMidYMid meet" version="1.0">
  <defs>
    <g></g>
  </defs>
  <g fill="#908afc" fill-opacity="1">
    <g transform="translate(11.676246, 58.243108)">
      <g></g>
    </g>
  </g>
  <g fill="#908afc" fill-opacity="1">
    <g transform="translate(20.957495, 58.243108)">
      <g>
        <path d="M 18.578125 -29.75 C 19.203125 -29.75 19.804688 -29.875 20.390625 -30.125 C 20.929688 -30.351562 21.414062 -30.679688 21.84375 -31.109375 C 22.289062 -31.535156 22.628906 -32.03125 22.859375 -32.59375 C 23.097656 -33.15625 23.21875 -33.757812 23.21875 -34.40625 C 23.21875 -35.039062 23.097656 -35.640625 22.859375 -36.203125 C 22.628906 -36.765625 22.289062 -37.257812 21.84375 -37.6875 C 21.414062 -38.113281 20.929688 -38.441406 20.390625 -38.671875 C 19.804688 -38.921875 19.203125 -39.046875 18.578125 -39.046875 C 17.941406 -39.046875 17.332031 -38.921875 16.75 -38.671875 C 16.195312 -38.441406 15.707031 -38.113281 15.28125 -37.6875 C 14.84375 -37.257812 14.507812 -36.765625 14.28125 -36.203125 C 14.03125 -35.640625 13.90625 -35.039062 13.90625 -34.40625 C 13.90625 -33.757812 14.03125 -33.15625 14.28125 -32.59375 C 14.507812 -32.03125 14.84375 -31.535156 15.28125 -31.109375 C 15.707031 -30.679688 16.195312 -30.351562 16.75 -30.125 C 17.332031 -29.875 17.941406 -29.75 18.578125 -29.75 Z M 24.015625 -34.40625 C 24.015625 -33.757812 24.140625 -33.15625 24.390625 -32.59375 C 24.617188 -32.03125 24.945312 -31.535156 25.375 -31.109375 C 25.8125 -30.679688 26.304688 -30.351562 26.859375 -30.125 C 27.441406 -29.875 28.046875 -29.75 28.671875 -29.75 C 29.304688 -29.75 29.914062 -29.875 30.5 -30.125 C 31.050781 -30.351562 31.535156 -30.679688 31.953125 -31.109375 C 32.398438 -31.535156 32.738281 -32.03125 32.96875 -32.59375 C 33.21875 -33.15625 33.34375 -33.757812 33.34375 -34.40625 C 33.34375 -35.039062 33.21875 -35.640625 32.96875 -36.203125 C 32.738281 -36.765625 32.398438 -37.257812 31.953125 -37.6875 C 31.535156 -38.113281 31.050781 -38.441406 30.5 -38.671875 C 29.914062 -38.921875 29.304688 -39.046875 28.671875 -39.046875 C 28.046875 -39.046875 27.441406 -38.921875 26.859375 -38.671875 C 26.304688 -38.441406 25.8125 -38.113281 25.375 -37.6875 C 24.945312 -37.257812 24.617188 -36.765625 24.390625 -36.203125 C 24.140625 -35.640625 24.015625 -35.039062 24.015625 -34.40625 Z M 23.625 -39.859375 C 24.257812 -39.859375 24.859375 -39.984375 25.421875 -40.234375 C 25.992188 -40.460938 26.492188 -40.800781 26.921875 -41.25 C 27.335938 -41.675781 27.660156 -42.160156 27.890625 -42.703125 C 28.140625 -43.285156 28.265625 -43.890625 28.265625 -44.515625 C 28.265625 -45.148438 28.140625 -45.757812 27.890625 -46.34375 C 27.660156 -46.894531 27.335938 -47.378906 26.921875 -47.796875 C 26.492188 -48.242188 25.992188 -48.582031 25.421875 -48.8125 C 24.859375 -49.0625 24.257812 -49.1875 23.625 -49.1875 C 22.988281 -49.1875 22.382812 -49.0625 21.8125 -48.8125 C 21.25 -48.582031 20.753906 -48.242188 20.328125 -47.796875 C 19.898438 -47.378906 19.566406 -46.894531 19.328125 -46.34375 C 19.097656 -45.757812 18.984375 -45.148438 18.984375 -44.515625 C 18.984375 -43.890625 19.097656 -43.285156 19.328125 -42.703125 C 19.566406 -42.160156 19.898438 -41.675781 20.328125 -41.25 C 20.753906 -40.800781 21.25 -40.460938 21.8125 -40.234375 C 22.382812 -39.984375 22.988281 -39.859375 23.625 -39.859375 Z M 44.59375 -9.34375 L 44.59375 -21.453125 C 44.3125 -24.296875 42.765625 -25.859375 39.953125 -26.140625 C 37.078125 -25.859375 35.519531 -24.296875 35.28125 -21.453125 L 35.28125 -9.34375 L 15.65625 -9.34375 C 13.425781 -9.550781 12.1875 -10.78125 11.9375 -13.03125 L 11.9375 -21.453125 C 11.707031 -24.296875 10.160156 -25.859375 7.296875 -26.140625 C 4.484375 -25.859375 2.9375 -24.296875 2.65625 -21.453125 L 2.65625 -13.03125 C 2.726562 -9.40625 4.007812 -6.335938 6.5 -3.828125 C 9.007812 -1.304688 12.0625 -0.03125 15.65625 0 L 49.828125 0 L 49.828125 -9.34375 Z M 44.59375 -9.34375 "></path>
      </g>
    </g>
  </g>
  <g fill="#908afc" fill-opacity="1">
    <g transform="translate(70.639822, 58.243108)">
      <g>
        <path d="M 38.828125 -9.34375 L 38.828125 -13.078125 C 38.753906 -16.742188 37.460938 -19.832031 34.953125 -22.34375 C 32.441406 -24.84375 29.375 -26.109375 25.75 -26.140625 L 12.296875 -26.140625 C 9.441406 -25.890625 7.890625 -24.34375 7.640625 -21.5 C 7.890625 -18.6875 9.441406 -17.117188 12.296875 -16.796875 L 25.75 -16.796875 C 28 -16.617188 29.242188 -15.378906 29.484375 -13.078125 L 29.484375 -9.34375 L -2.390625 -9.34375 L -2.390625 0 L 44.90625 0 L 44.90625 -9.34375 Z M 38.828125 -9.34375 "></path>
      </g>
    </g>
  </g>
  <g fill="#908afc" fill-opacity="1">
    <g transform="translate(115.491923, 58.243108)">
      <g>
        <path d="M 7.859375 3.5625 C 7.234375 3.5625 6.628906 3.675781 6.046875 3.90625 C 5.503906 4.144531 5.019531 4.476562 4.59375 4.90625 C 4.144531 5.332031 3.804688 5.828125 3.578125 6.390625 C 3.335938 6.960938 3.21875 7.566406 3.21875 8.203125 C 3.21875 8.816406 3.335938 9.414062 3.578125 10 C 3.804688 10.550781 4.144531 11.050781 4.59375 11.5 C 5.019531 11.914062 5.503906 12.238281 6.046875 12.46875 C 6.628906 12.71875 7.234375 12.84375 7.859375 12.84375 C 8.492188 12.84375 9.101562 12.71875 9.6875 12.46875 C 10.238281 12.238281 10.722656 11.914062 11.140625 11.5 C 11.585938 11.050781 11.925781 10.550781 12.15625 10 C 12.40625 9.414062 12.53125 8.816406 12.53125 8.203125 C 12.53125 7.566406 12.40625 6.960938 12.15625 6.390625 C 11.925781 5.828125 11.585938 5.332031 11.140625 4.90625 C 10.722656 4.476562 10.238281 4.144531 9.6875 3.90625 C 9.101562 3.675781 8.492188 3.5625 7.859375 3.5625 Z M 12.53125 -26.171875 C 9.664062 -25.890625 8.109375 -24.316406 7.859375 -21.453125 L 7.859375 -13.0625 C 7.609375 -10.789062 6.378906 -9.550781 4.171875 -9.34375 L 4.171875 -9.375 L 4.140625 -9.375 L 4.140625 -9.34375 L -2.390625 -9.34375 L -2.390625 0 L 4.171875 0 C 7.765625 -0.03125 10.804688 -1.304688 13.296875 -3.828125 C 15.804688 -6.359375 17.097656 -9.4375 17.171875 -13.0625 L 17.171875 -21.453125 C 16.890625 -24.316406 15.34375 -25.890625 12.53125 -26.171875 Z M 12.53125 -26.171875 "></path>
      </g>
    </g>
  </g>
</svg>
